<?xml version="1.0" encoding="UTF-8"?><svg xmlns="http://www.w3.org/2000/svg" viewBox="0 0 30 30"><defs><style>.cls-1{fill:#fecff4;}.cls-2{fill:#33fefa;}.cls-3{fill:#3b5151;}.cls-4{fill:#fff;stroke:#3b5151;stroke-miterlimit:10;stroke-width:.5px;}</style></defs><g id="Layer_13"><rect class="cls-3" x="4.52" y="4.55" width="24" height="24"/></g><g id="Layer_12"><rect class="cls-4" x="2.96" y="3" width="24" height="24"/></g><g id="grey"><path class="cls-3" d="M24.94,20.45c-.11-.37-.49-.58-.85-.47l-.8,.23-1.41-4.8c-.1-.34-.44-.56-.79-.49l-4.76,.97c.07,.54,.4,1.29,.63,1.51l3.82-.8,1.36,4.66c.05,.18,.17,.33,.33,.42,.16,.09,.35,.11,.53,.06l1.47-.42c.37-.11,.58-.49,.47-.85Z"/><path class="cls-3" d="M18.24,11.77c-.05-.14-.16-.26-.32-.32h0l-.35-.13-3.86-1.39s-.1-.02-.15-.02h0s-.01,0-.02,0c0,0,0,0-.01,0-.04,0-.08,.01-.11,.02-.03,0-.06,0-.09,.02h0c-.06,.03-.12,.06-.16,.11l-2.77,2.69-.35,.34c-.09,.09-.14,.2-.16,.32-.02,.15,.03,.31,.15,.43,.21,.21,.54,.22,.76,.01l1.06-1.03,1.9-1.72,.11,.02,2.31,.83,1.4,.5c.26,.09,.55-.03,.66-.27l.02-.05c.04-.12,.04-.25,0-.37Z"/><path class="cls-3" d="M11.02,17.15c-.54,0-.89-.17-1.06-.5-.32-.6,.21-1.4,.45-1.72l.13-.11,6.67-3.98c.51-.44,1.18-.42,1.54-.15l1.12,1.05c.38,.29,.37,.95-.07,1.51l-2.47,2.77c-.16,.2-.38,.38-.62,.48-.23,.09-.46,.1-.65,.03l-4.9,.6c-.05,0-.1,0-.15,0Zm-.25-.92s.12,.02,.33,.02l5.19-.64,.14,.11s.09-.1,.22-.26l2.47-2.77c.11-.14,.13-.29,.12-.33l-1.07-.98s-.21,0-.43,.19l-6.66,3.98c-.22,.31-.33,.59-.32,.68h0Z"/><path class="cls-3" d="M21.5,11.52c-1.49,0-2.7-1.21-2.7-2.7s1.21-2.7,2.7-2.7,2.7,1.21,2.7,2.7-1.21,2.7-2.7,2.7Zm0-4.57c-1.03,0-1.87,.84-1.87,1.87s.84,1.87,1.87,1.87,1.87-.84,1.87-1.87-.84-1.87-1.87-1.87Z"/><circle class="cls-1" cx="13.69" cy="18.9" r="4.9"/><path class="cls-3" d="M13.69,24.09c-2.86,0-5.19-2.33-5.19-5.19s2.33-5.19,5.19-5.19,5.19,2.33,5.19,5.19-2.33,5.19-5.19,5.19Zm0-9.79c-2.54,0-4.61,2.07-4.61,4.61s2.07,4.61,4.61,4.61,4.61-2.07,4.61-4.61-2.07-4.61-4.61-4.61Z"/><circle class="cls-2" cx="13.69" cy="18.9" r="3.69"/><path class="cls-3" d="M13.69,22.75c-2.12,0-3.85-1.73-3.85-3.85s1.73-3.85,3.85-3.85,3.85,1.73,3.85,3.85-1.73,3.85-3.85,3.85Zm0-7.38c-1.95,0-3.53,1.58-3.53,3.53s1.58,3.53,3.53,3.53,3.53-1.58,3.53-3.53-1.58-3.53-3.53-3.53Z"/></g></svg>