<?xml version="1.0" encoding="UTF-8"?><svg xmlns="http://www.w3.org/2000/svg" viewBox="0 0 30 30"><defs><style>.cls-1{fill:#fecff4;}.cls-2{fill:#3b5151;}.cls-3{fill:#fff;stroke:#3b5151;stroke-miterlimit:10;stroke-width:.5px;}</style></defs><g id="Layer_13"><rect class="cls-2" x="4.55" y="4.55" width="24" height="24"/></g><g id="Layer_12"><rect class="cls-3" x="3" y="3" width="24" height="24"/></g><g id="pinkback"><path class="cls-1" d="M6.9,20.22V9.3c0-1.17,1.02-2.13,2.26-2.13h11.63c1.24,0,2.26,.96,2.26,2.13v10.92c0,1.17-1.02,2.13-2.26,2.13H9.17c-1.24,0-2.26-.95-2.26-2.13Z"/></g><g id="grey"><g><path class="cls-2" d="M23.41,8.46c0,4.66,0,9.31,0,13.97,0,.17,.02,.34-.02,.5-.08,.44-.48,.6-.85,.35-.09-.06-.15-.14-.23-.21-.9-.73-1.95-.72-2.85,.02-.53,.43-.53,.44-1.1-.02-.57-.46-1.21-.68-1.92-.46-.36,.11-.7,.35-1.02,.57-.39,.27-.52,.29-.88,0-.07-.05-.12-.11-.19-.16-.8-.64-1.82-.66-2.64-.04-.12,.09-.22,.19-.34,.28-.23,.17-.46,.18-.68,0-.1-.08-.19-.16-.29-.24-.84-.65-1.86-.65-2.7,.01-.08,.06-.15,.14-.24,.2-.43,.31-.83,.15-.89-.37-.02-.18,0-.37,0-.56,0-4.61,0-9.23,0-13.84,0-.26-.03-.52-.04-.81-.27-.02-.47-.04-.67-.06-.27-.03-.4-.2-.41-.46,0-.26,.12-.45,.37-.5,.18-.04,.37-.04,.56-.04,5.72,0,11.43,0,17.15,0,.17,0,.33,0,.5,0,.33,.04,.51,.23,.5,.52,0,.26-.18,.44-.48,.48-.2,.03-.4,.04-.65,.06v.79Zm-12.44,13.62c.49-.19,.93-.39,1.38-.52,.78-.22,1.53-.07,2.22,.33,.31,.18,.54,.18,.85,0,1.02-.57,2.06-.57,3.09-.01,.24,.13,.44,.25,.74,.07,.87-.53,1.8-.59,2.76-.28,.08,.03,.16,.03,.24,.04,.12-.44,.17-12.94,.05-14.06-1.2-.1-2.42-.03-3.63-.05-1.23-.01-2.45,0-3.68,0h-3.61c-1.22,0-2.44,0-3.64,0-.15,.48-.17,13.4-.03,14.14,1.19-.43,2.29-.32,3.27,.33Z"/><path class="cls-2" d="M11.46,10.68c.33,0,7.8,.02,8.13,0,.34-.02,.52-.21,.53-.5,.01-.3-.15-.52-.48-.54-.71-.03-8.54-.03-9.25,0-.31,.01-.51,.26-.51,.53,0,.27,.2,.49,.52,.51,.35,.02,.71,0,1.06,0h0Z"/><path class="cls-2" d="M11.47,13.56c.33,0,7.8,.02,8.13,0,.34-.02,.52-.21,.53-.49,.01-.29-.15-.51-.49-.53-.7-.04-8.54-.04-9.24,0-.32,.01-.51,.26-.51,.53,0,.28,.22,.48,.6,.5,.33,.02,.66,0,.99,0h0Z"/><path class="cls-2" d="M11.48,15.43c-.35,0-.71-.02-1.06,0-.35,.02-.53,.2-.54,.48-.01,.3,.18,.52,.56,.53,.68,.02,8.5,.02,9.18,0,.32,0,.5-.22,.5-.51,0-.29-.16-.47-.52-.5-.33-.02-7.79,0-8.13,0Z"/><path class="cls-2" d="M11.43,19.33c.35,0,7.84,.02,8.19,0,.34-.02,.52-.22,.51-.5,0-.3-.17-.49-.52-.5-.7-.02-8.54-.02-9.24,0-.29,0-.47,.22-.49,.47-.02,.28,.17,.5,.49,.53,.35,.03,.7,0,1.06,0h0Z"/></g></g></svg>